<svg xmlns="http://www.w3.org/2000/svg" width="77.313" height="67.897" viewBox="0 0 77.313 67.897"><g transform="translate(-680.584 -318.359)"><path d="M701.088,325.531c0,22.648,15.536,41.009,34.7,41.009a30.053,30.053,0,0,0,13.435-3.192,35.471,35.471,0,1,1-47.571-44.989A48.376,48.376,0,0,0,701.088,325.531Z" fill="#ffd400"/><path d="M727.995,328.905l4.1,7.429,8.331,1.6-5.8,6.192,1.053,8.418-7.681-3.6-7.681,3.6,1.053-8.418-5.8-6.192,8.331-1.6,4.1-7.429" fill="#ffd400"/><path d="M749.109,320.634l2.9,5.253,5.891,1.132-4.1,4.378.744,5.952-5.431-2.547-5.432,2.547.744-5.952-4.1-4.378,5.891-1.132,2.9-5.253" fill="#ffd400"/></g></svg>