<svg xmlns="http://www.w3.org/2000/svg" width="76.5" height="76.5" viewBox="0 0 76.5 76.5"><g transform="translate(-391.218 -318.25)"><path d="M423.234,382.093h12.657l-6.329,12.657Zm19.94-2.938,8.95-8.95,4.475,13.423ZM407,370.205l8.949,8.95-13.423,4.474Zm.059-13.705a22.5,22.5,0,1,1,22.5,22.5A22.5,22.5,0,0,1,407.06,356.5Zm48-6.234,12.656,6.328-12.656,6.328Zm-63.844,6.141,12.657-6.329v12.657Zm51.955-22.561L456.6,329.37l-4.475,13.424Zm-40.647-4.475,13.423,4.475L407,342.795Zm20.707,1.535,6.328-12.656,6.329,12.656Z" fill="#ffd400"/></g></svg>