<svg xmlns="http://www.w3.org/2000/svg" width="105.596" height="61.121" viewBox="0 0 105.596 61.121"><g transform="translate(-390.405 -433.311)"><path d="M420.443,482.6c-.816-13.061,11.8-15.636,11.8-15.636s-1.435-19.336,16.279-21.54c15.184-1.551,19.8,12.56,19.8,12.56a9.036,9.036,0,0,1,10.777-.806c5.55,3.428,4.57,9.7,4.57,9.7S496,469.282,496,481.854c-.34,12.771-13.311,12.453-13.311,12.453l-48.519.125h-.018C433.652,494.432,422.51,494.3,420.443,482.6Zm-30-12c-.816-13.062,11.8-15.637,11.8-15.637s-1.436-19.335,16.279-21.539c15.184-1.551,19.991,12.747,19.991,12.747s-8.849,5.132-9.224,19.007c-5.625,1.688-11.616,6.329-11.8,17.2l-13.312.047h-.018C403.652,482.432,392.511,482.3,390.443,470.6Z" fill="#a4a5b5"/></g></svg>