<svg xmlns="http://www.w3.org/2000/svg" width="90.008" height="66.619" viewBox="0 0 90.008 66.619"><g transform="translate(-800.624 -312.814)"><path d="M860.158,317.354c0,14.339,9.836,25.963,21.969,25.963a19.027,19.027,0,0,0,8.506-2.021,22.457,22.457,0,1,1-30.117-28.482A30.637,30.637,0,0,0,860.158,317.354Z" fill="#ffd400"/><path d="M814.39,379.432s-11.613.138-13.728-11.829c-.817-13.062,11.8-15.636,11.8-15.636s-1.436-19.335,16.279-21.539c15.184-1.551,19.8,12.559,19.8,12.559a9.036,9.036,0,0,1,10.776-.806c5.551,3.429,4.571,9.7,4.571,9.7s12.331,2.4,12.331,14.968c-.341,12.771-13.311,12.453-13.311,12.453" fill="#a4a5b5"/></g></svg>