<svg xmlns="http://www.w3.org/2000/svg" width="112.815" height="65.38" viewBox="0 0 112.815 65.38"><g transform="translate(-518.406 -318.469)"><path d="M534,370.424l8.95,8.949-13.424,4.476Zm.061-13.705a22.5,22.5,0,0,1,22.5-22.5,26.262,26.262,0,0,1,10.982,2.968s2.758,1.88,2.758,1.88-4.364,3.965-4.739,14.464c0,.187-11.56,3.151-11.56,15.151,0,8.25,4.378,10.519,4.378,10.519l-1.819.017S534.063,374.534,534.063,356.719Zm-15.656.094,12.657-6.328V363.14Zm11.121-27.223,13.424,4.475-8.95,8.95Zm20.707,1.535,6.328-12.656,6.328,12.656Z" fill="#ffd400"/><path d="M569.39,382.432s-11.613.138-13.728-11.829c-.817-13.062,11.8-15.636,11.8-15.636s-1.436-19.335,16.279-21.539c15.184-1.551,19.8,12.559,19.8,12.559a9.036,9.036,0,0,1,10.776-.806c5.551,3.429,4.571,9.7,4.571,9.7s12.331,2.4,12.331,14.968c-.341,12.771-13.311,12.453-13.311,12.453" fill="#d5d6e5"/></g></svg>