<svg xmlns="http://www.w3.org/2000/svg" width="75.597" height="72.93" viewBox="0 0 75.597 72.93"><g transform="translate(-678.624 -569.309)"><path d="M734.582,637.049q-8.527,6.434-2.717-2.53-10.579-1.48-.133-3.71-6.433-8.527,2.53-2.717,1.48-10.579,3.71-.132,8.527-6.434,2.717,2.53,10.579,1.48.133,3.71,6.433,8.527-2.53,2.717-.744,5.322-1.679,5.323T734.582,637.049Zm-21,0q-8.525,6.434-2.717-2.53-10.577-1.48-.132-3.71-6.434-8.527,2.53-2.717,1.48-10.579,3.71-.132,8.527-6.434,2.717,2.53,10.579,1.48.132,3.71,6.434,8.527-2.529,2.717-.744,5.322-1.679,5.323T713.581,637.049Zm-21,0q-8.527,6.434-2.717-2.53-10.579-1.48-.132-3.71-6.434-8.527,2.53-2.717,1.48-10.579,3.71-.132,8.525-6.434,2.717,2.53,10.579,1.48.132,3.71,6.434,8.527-2.53,2.717-.744,5.322-1.679,5.323T692.582,637.049Z" fill="#84dafd"/><path d="M692.39,618.432s-11.613.138-13.728-11.829c-.817-13.062,11.8-15.636,11.8-15.636s-1.436-19.335,16.279-21.539c15.184-1.551,19.8,12.559,19.8,12.559a9.036,9.036,0,0,1,10.776-.806c5.551,3.429,4.571,9.7,4.571,9.7s12.331,2.4,12.331,14.968c-.341,12.771-13.311,12.453-13.311,12.453" fill="#d5d6e5"/></g></svg>