<svg xmlns="http://www.w3.org/2000/svg" width="75.597" height="94.159" viewBox="0 0 75.597 94.159"><g transform="translate(-809.624 -569.309)"><path d="M865.581,637.049q-8.525,6.434-2.717-2.53-10.579-1.48-.132-3.71-6.434-8.527,2.53-2.717,1.48-10.579,3.71-.132,8.527-6.434,2.717,2.53,10.579,1.48.132,3.71,6.434,8.527-2.53,2.717-.744,5.322-1.679,5.323T865.581,637.049Zm-21,0q-8.527,6.434-2.717-2.53-10.579-1.48-.132-3.71-6.434-8.527,2.529-2.717,1.48-10.579,3.711-.132,8.525-6.434,2.717,2.53,10.577,1.48.132,3.71,6.433,8.527-2.53,2.717-.744,5.322-1.679,5.323T844.582,637.049Zm-21,0q-8.527,6.434-2.717-2.53-10.579-1.48-.133-3.71-6.433-8.527,2.53-2.717,1.48-10.579,3.71-.132,8.527-6.434,2.717,2.53,10.579,1.48.133,3.71,6.433,8.527-2.53,2.717-.744,5.322-1.679,5.323T823.582,637.049Z" fill="#b8e5ff"/><path d="M823.39,618.432s-11.613.138-13.728-11.829c-.817-13.062,11.8-15.636,11.8-15.636s-1.436-19.335,16.279-21.539c15.184-1.551,19.8,12.559,19.8,12.559a9.036,9.036,0,0,1,10.776-.806c5.551,3.429,4.571,9.7,4.571,9.7s12.331,2.4,12.331,14.968c-.341,12.771-13.311,12.453-13.311,12.453" fill="#d5d6e5"/><path d="M852.444,661.569a6.176,6.176,0,0,1-1.921-4.551,7.249,7.249,0,0,1,2.152-4.8,16.893,16.893,0,0,0,2.93-3.984,19.419,19.419,0,0,0,1.427-4.287,19.887,19.887,0,0,0,1.439,4.287,16.921,16.921,0,0,0,2.93,3.984,7.246,7.246,0,0,1,2.153,4.8,6.177,6.177,0,0,1-1.922,4.551,6.508,6.508,0,0,1-9.189,0Zm-21,0a6.177,6.177,0,0,1-1.922-4.551,7.246,7.246,0,0,1,2.153-4.8,16.893,16.893,0,0,0,2.93-3.984,19.419,19.419,0,0,0,1.427-4.287,19.79,19.79,0,0,0,1.439,4.287,16.893,16.893,0,0,0,2.93,3.984,7.249,7.249,0,0,1,2.152,4.8,6.176,6.176,0,0,1-1.921,4.551,6.508,6.508,0,0,1-9.189,0Z" fill="#84dafd"/></g></svg>