<svg xmlns="http://www.w3.org/2000/svg" width="75.597" height="78.336" viewBox="0 0 75.597 78.336"><g transform="translate(-545.624 -442.309)"><path d="M559.39,491.432s-11.613.138-13.728-11.829c-.817-13.062,11.8-15.636,11.8-15.636s-1.436-19.335,16.279-21.539c15.184-1.551,19.8,12.559,19.8,12.559a9.036,9.036,0,0,1,10.776-.806c5.551,3.429,4.571,9.7,4.571,9.7s12.331,2.4,12.331,14.968c-.341,12.771-13.311,12.453-13.311,12.453" fill="#a4a5b5"/><path d="M580.014,482.219l-7.9,18.049h11.318l-9.212,20.378,20-23.5H583.7l8.685-14.926Z" fill="#ffd400"/></g></svg>