<svg xmlns="http://www.w3.org/2000/svg" width="75.597" height="93.159" viewBox="0 0 75.597 93.159"><g transform="translate(-543.624 -568.309)"><path d="M557.39,617.432s-11.613.138-13.728-11.829c-.817-13.062,11.8-15.636,11.8-15.636s-1.436-19.335,16.279-21.539c15.184-1.551,19.8,12.559,19.8,12.559a9.036,9.036,0,0,1,10.776-.806c5.551,3.429,4.571,9.7,4.571,9.7s12.331,2.4,12.331,14.968c-.341,12.771-13.311,12.453-13.311,12.453" fill="#a4a5b5"/><path d="M597.444,637.569a6.174,6.174,0,0,1-1.922-4.551,7.25,7.25,0,0,1,2.153-4.8,16.9,16.9,0,0,0,2.93-3.983,19.443,19.443,0,0,0,1.427-4.288,19.812,19.812,0,0,0,1.439,4.288,16.9,16.9,0,0,0,2.93,3.983,7.25,7.25,0,0,1,2.153,4.8,6.174,6.174,0,0,1-1.922,4.551,6.505,6.505,0,0,1-9.189,0Zm-21,0a6.173,6.173,0,0,1-1.921-4.551,7.249,7.249,0,0,1,2.152-4.8,16.889,16.889,0,0,0,2.931-3.983,19.448,19.448,0,0,0,1.426-4.288,19.858,19.858,0,0,0,1.44,4.288,16.9,16.9,0,0,0,2.93,3.983,7.249,7.249,0,0,1,2.152,4.8,6.176,6.176,0,0,1-1.921,4.551,6.506,6.506,0,0,1-9.19,0Zm-21,0a6.173,6.173,0,0,1-1.921-4.551,7.249,7.249,0,0,1,2.152-4.8,16.9,16.9,0,0,0,2.93-3.983,19.443,19.443,0,0,0,1.427-4.288,19.913,19.913,0,0,0,1.439,4.288,16.89,16.89,0,0,0,2.931,3.983,7.249,7.249,0,0,1,2.152,4.8,6.174,6.174,0,0,1-1.922,4.551,6.505,6.505,0,0,1-9.189,0Z" fill="#84dafd"/><path d="M586.444,659.569a6.172,6.172,0,0,1-1.921-4.55,7.248,7.248,0,0,1,2.153-4.8,16.9,16.9,0,0,0,2.93-3.983,19.472,19.472,0,0,0,1.427-4.288,19.853,19.853,0,0,0,1.438,4.288,16.917,16.917,0,0,0,2.931,3.983,7.251,7.251,0,0,1,2.152,4.8,6.172,6.172,0,0,1-1.921,4.55,6.506,6.506,0,0,1-9.19,0Zm-21,0a6.172,6.172,0,0,1-1.921-4.55,7.251,7.251,0,0,1,2.152-4.8,16.916,16.916,0,0,0,2.931-3.983,19.476,19.476,0,0,0,1.426-4.288,19.9,19.9,0,0,0,1.439,4.288,16.917,16.917,0,0,0,2.931,3.983,7.251,7.251,0,0,1,2.152,4.8,6.173,6.173,0,0,1-1.922,4.55,6.505,6.505,0,0,1-9.189,0Z" fill="#84dafd"/></g></svg>