<svg xmlns="http://www.w3.org/2000/svg" width="75.597" height="71.16" viewBox="0 0 75.597 71.16"><g transform="translate(-403.624 -568.309)"><path d="M417.39,617.432s-11.613.138-13.728-11.829c-.817-13.062,11.8-15.636,11.8-15.636s-1.436-19.335,16.279-21.539c15.184-1.551,19.8,12.559,19.8,12.559a9.036,9.036,0,0,1,10.776-.806c5.551,3.429,4.571,9.7,4.571,9.7s12.331,2.4,12.331,14.968c-.341,12.771-13.311,12.453-13.311,12.453" fill="#a4a5b5"/><path d="M457.444,637.569a6.173,6.173,0,0,1-1.921-4.551,7.249,7.249,0,0,1,2.152-4.8,16.917,16.917,0,0,0,2.931-3.983,19.5,19.5,0,0,0,1.426-4.288,19.912,19.912,0,0,0,1.439,4.288,16.917,16.917,0,0,0,2.931,3.983,7.249,7.249,0,0,1,2.152,4.8,6.176,6.176,0,0,1-1.921,4.551,6.506,6.506,0,0,1-9.19,0Zm-21,0a6.174,6.174,0,0,1-1.922-4.551,7.25,7.25,0,0,1,2.153-4.8,16.9,16.9,0,0,0,2.93-3.983,19.442,19.442,0,0,0,1.427-4.288,19.814,19.814,0,0,0,1.439,4.288,16.9,16.9,0,0,0,2.93,3.983,7.25,7.25,0,0,1,2.153,4.8,6.174,6.174,0,0,1-1.922,4.551,6.505,6.505,0,0,1-9.189,0Zm-21,0a6.173,6.173,0,0,1-1.921-4.551,7.246,7.246,0,0,1,2.153-4.8,16.9,16.9,0,0,0,2.93-3.983,19.446,19.446,0,0,0,1.426-4.288,19.912,19.912,0,0,0,1.439,4.288,16.917,16.917,0,0,0,2.931,3.983,7.249,7.249,0,0,1,2.152,4.8,6.173,6.173,0,0,1-1.921,4.551,6.506,6.506,0,0,1-9.19,0Z" fill="#84dafd"/></g></svg>