<svg xmlns="http://www.w3.org/2000/svg" xmlns:xlink="http://www.w3.org/1999/xlink" width="71.93" height="71.113" viewBox="0 0 71.93 71.113"><defs><linearGradient id="a" y1="0.5" x2="1" y2="0.5" gradientUnits="objectBoundingBox"><stop offset="0" stop-color="#d4896d"/><stop offset="0.348" stop-color="#d4896d"/><stop offset="0.351" stop-color="#b5694c"/><stop offset="1" stop-color="#b5694c"/></linearGradient><linearGradient id="b" y1="0.5" x2="1" y2="0.5" gradientUnits="objectBoundingBox"><stop offset="0" stop-color="#ed6a58"/><stop offset="0.492" stop-color="#ed6a58"/><stop offset="0.492" stop-color="#e34a35"/><stop offset="1" stop-color="#e34a35"/></linearGradient></defs><g transform="translate(-814.035 -438.944)"><path d="M830.12,510.057H816.333a2.22,2.22,0,0,1-2.3-2.126v-.386a2.22,2.22,0,0,1,2.3-2.126h4.387V445.882a3.74,3.74,0,0,1-1.671-3.074,4.191,4.191,0,0,1,8.356,0,3.741,3.741,0,0,1-1.671,3.074V458.4l2.161-2a1.7,1.7,0,0,1,1.158-.443,1.831,1.831,0,0,1,.557.087v15.271a1.774,1.774,0,0,1-.537.092,1.725,1.725,0,0,1-1.18-.454l-2.159-2v36.463h4.387a2.219,2.219,0,0,1,2.3,2.126v.386A2.219,2.219,0,0,1,830.12,510.057Zm-.937-50.477-3.45,3.192v1.812l3.36,3.109c-.126-1.259-.189-2.49-.189-3.659a36.8,36.8,0,0,1,.279-4.454Z" fill="url(#a)"/><path d="M830.97,455.113c1.231-5.731,3.833-10.272,7.666-10.272a4.454,4.454,0,0,1,1.211.18c13.494,2.169,38.9,6.249,40.523,6.481,3.674.115,5.6,5.859,5.6,11.533,0,.047,0,.094,0,.139s-.235.094-.235.139c0,5.732-1.308,11.536-5.946,11.536v-.263c0,.147-5.77.942-12.224,1.975a7.07,7.07,0,0,1-1.69.507v-.2c-7.73,1.362-18.927,3.039-26.052,4.185a4.324,4.324,0,0,1-1.194.18c-3.977,0-6.618-4.89-7.787-10.924a1.5,1.5,0,0,1-1.618-.35S826.475,458.514,830.97,455.113Z" fill="url(#b)"/></g></svg>